<svg xmlns="http://www.w3.org/2000/svg" xmlns:xlink="http://www.w3.org/1999/xlink" version="1.1" x="0px" y="0px" viewBox="0 0 512 512" style="enable-background:new 0 0 128 128;" xml:space="preserve"><g><g><g><g><path d="M218.645,340.242c-3.299,0-6.527-1.631-8.436-4.616c-2.974-4.653-1.612-10.837,3.041-13.812l98.974-63.254      c1.22-0.779,1.401-1.938,1.401-2.56c0-0.622-0.182-1.782-1.402-2.562l-113.85-72.761v140.418c0,5.523-4.477,10-10,10      s-10-4.477-10-10V179.832c0-10.781,8.774-19.552,19.56-19.552c3.705,0,7.335,1.069,10.499,3.091l114.562,73.216      c6.657,4.255,10.632,11.512,10.632,19.414s-3.975,15.16-10.632,19.414l-98.973,63.253      C222.353,339.732,220.488,340.242,218.645,340.242z" fill="#ffffff"/></g><g><path d="M440.667,411h-300c-5.523,0-10-4.477-10-10s4.477-10,10-10h300c1.595,0,3.102,0.373,4.439,1.037      c0.533-1.394,1.389-2.688,2.56-3.769c2.15-1.981,3.334-4.681,3.334-7.602V131.333c0-5.698-4.636-10.333-10.333-10.333h-1.905      c-5.522,0-10-4.477-10-10s4.478-10,10-10h1.905C457.393,101,471,114.607,471,131.333v249.333c0,8.448-3.563,16.578-9.777,22.307      c-3.135,2.888-7.615,3.394-11.218,1.611C448.563,408.337,444.927,411,440.667,411z M90.667,411H71.333      C54.607,411,41,397.393,41,380.667V131.953c0-5.523,4.477-10,10-10s10,4.477,10,10v248.714C61,386.365,65.636,391,71.333,391      h19.333c5.523,0,10,4.477,10,10S96.19,411,90.667,411z M388.762,121h-300c-5.523,0-10-4.477-10-10s4.477-10,10-10h300      c5.522,0,10,4.477,10,10S394.284,121,388.762,121z" fill="#ffffff"/></g></g></g></g></svg>
