<svg xmlns="http://www.w3.org/2000/svg" xmlns:xlink="http://www.w3.org/1999/xlink" version="1.1" x="0px" y="0px" viewBox="0 0 91 113.75" enable-background="new 0 0 91 91" xml:space="preserve"><g><path d="M89.801,41.258C89.613,30.659,89.51,8.891,89.51,8.78c-0.002,0.002-0.006,0.002-0.01,0.002   c-0.012-0.201-0.033-0.404-0.072-0.611c-0.324-1.84-2.455-2.031-3.666-1.084C72.551,7.307,59.344,7.52,46.135,7.649   C32.457,7.78,18.721,8.284,5.045,7.93c-3.432-0.09-3.754,4.928-1.049,5.793c0,0.02,0,0.041,0,0.063   c-0.105,2.369-0.281,4.693-0.553,7.055C2.566,28.485,1.9,36.196,1.617,43.887c-0.314,8.535-0.418,17.039-0.156,25.578   c0.102,3.297-0.551,8.447,1.201,11.344c1.07,1.77,2.877,2.475,4.879,2.609c3.168,0.215,61.904-0.377,68.363-0.469   c4.338-0.057,9.141-0.504,11.988-4.211c3.555-4.627,2.373-12.113,2.291-17.67C90.084,54.463,89.918,47.861,89.801,41.258z    M85.016,67.283c-0.063,3.135,0.359,7.535-2.898,9.176c-1.871,0.941-4.174,0.883-6.213,0.91c-3.123,0.043-6.252,0.045-9.375,0.066   l-35.635,0.258c-6.043,0.043-12.086,0.086-18.129,0.129c-1.248,0.01-3.141,0.355-4.373,0.031c-1.115-0.295-0.951-0.346-1.061-1.533   c-0.164-1.766-0.148-3.57-0.199-5.346C6.91,63.066,6.879,55.15,6.727,47.242C6.572,39.137,6.346,31.02,5.891,22.93   c-0.154-2.771-0.316-5.508-0.203-8.281c0.01-0.215,0.014-0.514,0.02-0.84c13.441-0.811,26.969-0.834,40.428-1.209   c12.93-0.365,25.861-0.645,38.795-0.896C84.994,30.235,85.389,48.748,85.016,67.283z"/><path d="M78.133,64.799c-5.627-0.73-11.613-0.289-17.287-0.293c-5.557-0.004-11.115,0.004-16.668,0.211   c-5.553,0.203-11.105,0.502-16.648,0.93c-1.82,0.141-3.658,0.266-5.498,0.426c-0.037-2.133-0.064-4.393-0.715-6.244   c-0.23-0.648-1.035-0.934-1.555-0.412c-1.549,1.553-1.629,4.813-1.838,7.094c-2.277,0.299-4.535,0.707-6.732,1.344   c-1.463,0.424-1.076,2.424,0.344,2.545c1.959,0.168,3.93,0.201,5.904,0.176c-0.055,0.453-0.113,0.91-0.166,1.363   c-0.156,1.277-0.416,1.406-0.119,2.846c0.418,2.018,3.141,2.557,4.5,1.189c1.221-1.232,0.992-3.566,0.717-5.549   c2.135-0.092,4.268-0.195,6.393-0.229c5.346-0.084,10.686-0.039,16.031,0.068c5.352,0.107,10.701,0.213,16.051,0.398   c5.689,0.203,11.613,0.979,17.287,0.582C82.365,70.949,82.178,65.324,78.133,64.799z"/><path d="M41.873,49.795c5.85-1.867,11.072-5.844,16.258-9.042c1.797-1.111,1.92-3.873,0-4.959   c-4.512-2.541-9.281-4.953-13.279-8.281c-3.176-2.643-6.891,1.709-4.309,4.307c-0.523,4.867-1.088,9.611-2.199,14.449   C37.875,48.303,39.695,50.488,41.873,49.795z M51.031,38.278c-2.162,1.305-4.336,2.615-6.543,3.837   c0.225-2.501,0.365-5.037,0.229-7.529C46.799,35.852,48.92,37.057,51.031,38.278z"/><path d="M42.791,58.146c9.369,1.635,18.914-2.131,23.391-10.766c2.111-4.066,3.809-9.335,2.854-13.923   c-0.855-4.115-3.619-6.93-6.73-9.557c-5.965-5.043-14.891-6.883-22.471-6.852c-2.148,0.006-3.205,1.705-3.176,3.375   c-7.57,2.629-14.084,8.744-13.738,17.309C23.346,48.232,32.934,56.428,42.791,58.146z M58.35,28.051   C58.416,28.098,58.424,28.108,58.35,28.051L58.35,28.051z M30.16,28.657c2.145-2.617,4.887-4.25,7.828-5.566   c0.484,0.334,1.098,0.539,1.846,0.537c6.422-0.025,12.209,1.156,17.91,4.059c0.172,0.086,0.334,0.188,0.459,0.268   c0.752,0.578,1.48,1.199,2.188,1.822c3.039,2.678,4.166,5.422,3.367,9.52c-1.416,7.275-6.234,13.119-13.801,14.292   c-7.945,1.232-16.67-2.744-20.639-9.793C26.527,38.842,26.484,33.145,30.16,28.657z"/></g><text x="0" y="106" fill="#000000" font-size="5px" font-weight="bold" font-family="'Helvetica Neue', Helvetica, Arial-Unicode, Arial, Sans-serif">Created by BomSymbols</text><text x="0" y="111" fill="#000000" font-size="5px" font-weight="bold" font-family="'Helvetica Neue', Helvetica, Arial-Unicode, Arial, Sans-serif">from the Noun Project</text></svg>