<svg height="512pt" viewBox="0 -74 512.00063 512" width="512pt" fill="#fff" xmlns="http://www.w3.org/2000/svg"><path d="m329.847656 343.492188c-23.492187.796874-48.335937 1.199218-73.847656 1.199218-73.746094 0-138.996094-3.308594-174.550781-8.851562-37.988281-5.921875-53.082031-23.621094-57.6875-67.628906-5.035157-48.148438-5.035157-123.582032 0-171.730469 4.605469-44.007813 19.699219-61.703125 57.6875-67.625 6.167969-.964844 13.414062-1.878907 21.542969-2.722657 5.496093-.570312 9.488281-5.484374 8.917968-10.980468-.570312-5.492188-5.492187-9.488282-10.980468-8.914063-8.46875.878907-16.058594 1.839844-22.5625 2.851563-23.695313 3.695312-40.304688 11.652344-52.265626 25.039062-12.308593 13.765625-19.371093 32.917969-22.234374 60.273438-5.15625 49.316406-5.15625 126.574218 0 175.890625 2.863281 27.355469 9.925781 46.503906 22.234374 60.273437 11.960938 13.386719 28.570313 21.34375 52.265626 25.035156 36.511718 5.695313 102.917968 9.09375 177.632812 9.09375 25.734375 0 50.808594-.40625 74.523438-1.210937 5.519531-.1875 9.84375-4.8125 9.65625-10.332031-.1875-5.519532-4.789063-9.84375-10.332032-9.660156zm0 0"/><path d="m508.132812 94.402344c-2.863281-27.351563-9.925781-46.503906-22.230468-60.273438-11.964844-13.386718-28.574219-21.34375-52.269532-25.035156-36.515624-5.695312-102.921874-9.09375-177.632812-9.09375-25.734375 0-50.804688.410156-74.519531 1.210938-5.523438.1875-9.847657 4.8125-9.660157 10.332031.1875 5.523437 4.792969 9.855469 10.335938 9.660156 23.488281-.796875 48.335938-1.199219 73.847656-1.199219 73.738282 0 138.992188 3.308594 174.550782 8.851563 37.984374 5.925781 53.082031 23.621093 57.683593 67.628906 5.039063 48.148437 5.039063 123.582031 0 171.730469-4.601562 44.007812-19.699219 61.703125-57.683593 67.628906-6.167969.960938-13.417969 1.875-21.546876 2.71875-5.492187.570312-9.484374 5.484375-8.914062 10.980469.535156 5.144531 4.875 8.96875 9.933594 8.96875.347656 0 .695312-.019531 1.046875-.054688 8.464843-.878906 16.054687-1.835937 22.558593-2.851562 23.695313-3.695313 40.304688-11.648438 52.269532-25.035157 12.304687-13.769531 19.367187-32.921874 22.230468-60.273437 5.15625-49.316406 5.15625-126.578125 0-175.894531zm0 0"/><path d="m338.421875 173.839844-123.773437-76.472656c-3.085938-1.90625-6.960938-1.992188-10.128907-.226563-3.164062 1.765625-5.128906 5.109375-5.128906 8.734375v152.941406c0 3.625 1.964844 6.96875 5.128906 8.734375 1.519531.84375 3.195313 1.265625 4.871094 1.265625 1.828125 0 3.648437-.5 5.257813-1.492187l123.773437-76.46875c2.949219-1.824219 4.746094-5.042969 4.746094-8.507813 0-3.46875-1.796875-6.6875-4.746094-8.507812zm-119.027344 67.042968v-117.070312l94.742188 58.535156zm0 0"/><path d="m141.84375 23.035156c.222656 0 .449219-.007812.675781-.019531 5.511719-.367187 9.679688-5.132813 9.3125-10.644531-.367187-5.511719-5.140625-9.6875-10.644531-9.316406h-.007812c-5.511719.367187-9.675782 5.132812-9.308594 10.644531.351562 5.285156 4.75 9.335937 9.972656 9.335937zm0 0"/><path d="m369.484375 341.683594c-5.511719.363281-9.683594 5.128906-9.316406 10.640625.351562 5.285156 4.75 9.335937 9.96875 9.335937.226562 0 .449219-.007812.675781-.019531h.007812c5.511719-.367187 9.675782-5.132813 9.308594-10.644531-.367187-5.511719-5.125-9.675782-10.644531-9.3125zm0 0"/></svg>